<svg xmlns="http://www.w3.org/2000/svg" xmlns:xlink="http://www.w3.org/1999/xlink" viewBox="0 0 39 42"><defs><style>.cls-1{fill:#f6be5f;}.cls-2{fill:url(#Dégradé_sans_nom_14);}.cls-3{fill:url(#Dégradé_sans_nom_14-2);}.cls-4{fill:#f6be67;}.cls-5{fill:url(#Dégradé_sans_nom_14-3);}.cls-6{fill:url(#Dégradé_sans_nom_14-4);}.cls-7{fill:url(#Dégradé_sans_nom_14-5);}.cls-8{fill:url(#Dégradé_sans_nom_14-6);}.cls-9{fill:url(#Dégradé_sans_nom_14-7);}.cls-10{fill:url(#Dégradé_sans_nom_14-8);}.cls-11{fill:url(#Dégradé_sans_nom_14-9);}.cls-12{fill:url(#Dégradé_sans_nom_14-10);}.cls-13{fill:url(#Dégradé_sans_nom_14-11);}.cls-14{fill:url(#Dégradé_sans_nom_14-12);}.cls-15{fill:url(#Dégradé_sans_nom_14-13);}.cls-16{fill:url(#Dégradé_sans_nom_14-14);}.cls-17{fill:#f6d965;}.cls-18{fill:url(#Dégradé_sans_nom_15);}</style><linearGradient id="Dégradé_sans_nom_14" x1="16.5" y1="-22.25" x2="16.5" y2="74.66" gradientTransform="matrix(1, 0, 0, -1, 0, 44)" gradientUnits="userSpaceOnUse"><stop offset="0" stop-color="#273a9b"/><stop offset="0.56" stop-color="#202f65"/><stop offset="1" stop-color="#021e2f"/></linearGradient><linearGradient id="Dégradé_sans_nom_14-2" x1="7.5" y1="-32.71" x2="7.5" y2="71.57" xlink:href="#Dégradé_sans_nom_14"/><linearGradient id="Dégradé_sans_nom_14-3" x1="9" y1="-18.25" x2="9" y2="48.3" xlink:href="#Dégradé_sans_nom_14"/><linearGradient id="Dégradé_sans_nom_14-4" x1="20.25" y1="-18.25" x2="20.25" y2="48.3" xlink:href="#Dégradé_sans_nom_14"/><linearGradient id="Dégradé_sans_nom_14-5" x1="24.75" y1="-18.25" x2="24.75" y2="48.3" xlink:href="#Dégradé_sans_nom_14"/><linearGradient id="Dégradé_sans_nom_14-6" x1="13.5" y1="-18.25" x2="13.5" y2="48.3" xlink:href="#Dégradé_sans_nom_14"/><linearGradient id="Dégradé_sans_nom_14-7" x1="11.25" y1="-18.25" x2="11.25" y2="48.3" xlink:href="#Dégradé_sans_nom_14"/><linearGradient id="Dégradé_sans_nom_14-8" x1="22.5" y1="-18.25" x2="22.5" y2="48.3" xlink:href="#Dégradé_sans_nom_14"/><linearGradient id="Dégradé_sans_nom_14-9" x1="9" y1="-14.88" x2="9" y2="-30.88" xlink:href="#Dégradé_sans_nom_14"/><linearGradient id="Dégradé_sans_nom_14-10" x1="20.25" y1="-14.88" x2="20.25" y2="-30.88" xlink:href="#Dégradé_sans_nom_14"/><linearGradient id="Dégradé_sans_nom_14-11" x1="24.75" y1="-14.88" x2="24.75" y2="-30.88" xlink:href="#Dégradé_sans_nom_14"/><linearGradient id="Dégradé_sans_nom_14-12" x1="13.5" y1="-14.88" x2="13.5" y2="-30.88" xlink:href="#Dégradé_sans_nom_14"/><linearGradient id="Dégradé_sans_nom_14-13" x1="11.25" y1="-14.88" x2="11.25" y2="-30.88" xlink:href="#Dégradé_sans_nom_14"/><linearGradient id="Dégradé_sans_nom_14-14" x1="22.5" y1="-14.88" x2="22.5" y2="-30.88" xlink:href="#Dégradé_sans_nom_14"/><linearGradient id="Dégradé_sans_nom_15" x1="10.85" y1="23.83" x2="57.64" y2="4.98" gradientTransform="matrix(1, 0, 0, -1, 0, 44)" gradientUnits="userSpaceOnUse"><stop offset="0" stop-color="#f6be5f"/><stop offset="1" stop-color="#f6be5f" stop-opacity="0"/></linearGradient></defs><g id="Calque_2" data-name="Calque 2"><g id="Layer_1" data-name="Layer 1"><path id="path38" class="cls-1" d="M25.5,30.46H39v7.47A4.08,4.08,0,0,1,34.92,42H25.5V30.46Z"/><path id="path40" class="cls-2" d="M28.35,0H13a2.28,2.28,0,0,0-1.64.68L.68,11.33A2.31,2.31,0,0,0,0,13V37.35A4.65,4.65,0,0,0,4.65,42h23.7A4.65,4.65,0,0,0,33,37.35h0V4.65A4.65,4.65,0,0,0,28.35,0Z"/><path id="path42" class="cls-3" d="M15,0H13a2.28,2.28,0,0,0-1.64.68L6.5,5.5.68,11.33A2.31,2.31,0,0,0,0,13V37.35A4.65,4.65,0,0,0,4.65,42H12V13.74a5,5,0,0,1,1-2.94,10.14,10.14,0,0,0,2-6.05Z"/><path id="path44" class="cls-4" d="M5.65,12A6.35,6.35,0,0,0,12,5.65h0V.22a2.4,2.4,0,0,0-.68.46L.68,11.33A2.4,2.4,0,0,0,.22,12Z"/><path id="path46" class="cls-5" d="M12,19.5a.76.76,0,0,0-.75-.75H6.75a.75.75,0,0,0,0,1.5h4.5A.76.76,0,0,0,12,19.5Z"/><path id="path48" class="cls-6" d="M26.25,18.75h-12a.76.76,0,0,0-.75.75h0a.76.76,0,0,0,.75.75h12a.75.75,0,0,0,0-1.5Z"/><path id="path50" class="cls-7" d="M26.25,24.75h-3a.76.76,0,0,0-.75.75h0a.76.76,0,0,0,.75.75h3a.75.75,0,0,0,0-1.5Z"/><path id="path52" class="cls-8" d="M21,25.5a.76.76,0,0,0-.75-.75H6.75a.75.75,0,0,0,0,1.5h13.5A.76.76,0,0,0,21,25.5Z"/><path id="path54" class="cls-9" d="M16.5,31.5a.76.76,0,0,0-.75-.75h-9a.75.75,0,0,0,0,1.5h9A.76.76,0,0,0,16.5,31.5Z"/><path id="path56" class="cls-10" d="M26.25,30.75h-7.5a.76.76,0,0,0-.75.75h0a.76.76,0,0,0,.75.75h7.5a.75.75,0,0,0,0-1.5Z"/><path id="path58" class="cls-11" d="M12,18.75a.76.76,0,0,0-.75-.75H6.75a.75.75,0,0,0,0,1.5h4.5A.76.76,0,0,0,12,18.75Z"/><path id="path60" class="cls-12" d="M26.25,18h-12a.76.76,0,0,0-.75.75h0a.76.76,0,0,0,.75.75h12a.75.75,0,0,0,0-1.5Z"/><path id="path62" class="cls-13" d="M26.25,24h-3a.76.76,0,0,0-.75.75h0a.76.76,0,0,0,.75.75h3a.75.75,0,0,0,0-1.5Z"/><path id="path64" class="cls-14" d="M21,24.75a.76.76,0,0,0-.75-.75H6.75a.75.75,0,0,0,0,1.5h13.5A.76.76,0,0,0,21,24.75Z"/><path id="path66" class="cls-15" d="M16.5,30.75a.76.76,0,0,0-.75-.75h-9a.75.75,0,0,0,0,1.5h9A.76.76,0,0,0,16.5,30.75Z"/><path id="path68" class="cls-16" d="M26.25,30h-7.5a.76.76,0,0,0-.75.75h0a.76.76,0,0,0,.75.75h7.5a.75.75,0,0,0,0-1.5Z"/><path id="path70" class="cls-17" d="M34.92,15H12.05A3.06,3.06,0,0,0,9,18.05v13.4a3.06,3.06,0,0,0,3.05,3.05H34.92a4.26,4.26,0,0,1,4.08,3h0V19.08A4.08,4.08,0,0,0,34.92,15Z"/><path id="path72" class="cls-18" d="M33,15H12.05A3.06,3.06,0,0,0,9,18.05v13.4a3.06,3.06,0,0,0,3.05,3.05H33Z"/><path d="M26.73,20.79l-3.61-3.61a.46.46,0,0,0-.32-.13H16.49a1.35,1.35,0,0,0-1.35,1.36V31.09a1.35,1.35,0,0,0,1.35,1.36h9a1.35,1.35,0,0,0,1.35-1.36v-10A.46.46,0,0,0,26.73,20.79Zm-3.47-2.2,2.06,2.07H23.71a.45.45,0,0,1-.45-.45Zm2.25,13h-9a.46.46,0,0,1-.45-.46V18.41a.46.46,0,0,1,.45-.46h5.86v2.26a1.35,1.35,0,0,0,1.36,1.35H26v9.53A.46.46,0,0,1,25.51,31.55Z"/><path d="M23.71,23.43H18.29a.45.45,0,1,0,0,.9h5.42a.45.45,0,1,0,0-.9Z"/><path d="M23.71,25.23H18.29a.45.45,0,0,0,0,.9h5.42a.45.45,0,0,0,0-.9Z"/><path d="M23.71,27H18.29a.45.45,0,1,0,0,.9h5.42a.45.45,0,1,0,0-.9Z"/><path d="M21.9,28.84H18.29a.45.45,0,0,0,0,.9H21.9a.45.45,0,1,0,0-.9Z"/></g></g></svg>