<svg xmlns="http://www.w3.org/2000/svg" xmlns:xlink="http://www.w3.org/1999/xlink" viewBox="0 0 532.67 573.64"><defs><style>.cls-1{fill:url(#Dégradé_sans_nom_13);}.cls-2{fill:url(#Dégradé_sans_nom_11);}.cls-3{fill:url(#Dégradé_sans_nom_11-2);}.cls-4{fill:url(#Dégradé_sans_nom_13-2);}.cls-5{fill:url(#Dégradé_sans_nom_11-3);}.cls-6{fill:url(#Dégradé_sans_nom_11-4);}.cls-7{fill:url(#Dégradé_sans_nom_11-5);}.cls-8{fill:url(#Dégradé_sans_nom_11-6);}.cls-9{fill:url(#Dégradé_sans_nom_11-7);}.cls-10{fill:url(#Dégradé_sans_nom_11-8);}.cls-11{fill:url(#Dégradé_sans_nom_11-9);}.cls-12{fill:url(#Dégradé_sans_nom_13-3);}.cls-13{fill:url(#Dégradé_sans_nom_13-4);}.cls-14{fill:url(#Dégradé_sans_nom_22);}.cls-15{fill:url(#Dégradé_sans_nom_21);}.cls-16{fill:url(#Dégradé_sans_nom_16);}.cls-17{fill:url(#Dégradé_sans_nom_20);}.cls-18{fill:url(#Dégradé_sans_nom_20-2);}.cls-19{fill:url(#Dégradé_sans_nom_19);}.cls-20{fill:url(#Dégradé_sans_nom_18);}.cls-21{fill:url(#Dégradé_sans_nom_17);}.cls-22{fill:url(#Dégradé_sans_nom_16-2);}.cls-23{fill:url(#Dégradé_sans_nom_15);}</style><linearGradient id="Dégradé_sans_nom_13" x1="-133.42" y1="328.08" x2="-133.42" y2="347.35" gradientTransform="matrix(13.66, 0, 0, -13.66, 2262.7, 5128.06)" gradientUnits="userSpaceOnUse"><stop offset="0" stop-color="#27e9de"/><stop offset="0.52" stop-color="#03a4ec"/><stop offset="1" stop-color="#2547a8"/></linearGradient><linearGradient id="Dégradé_sans_nom_11" x1="-149.17" y1="309.21" x2="-149.17" y2="406.12" gradientTransform="matrix(13.66, 0, 0, -13.66, 2262.7, 5128.06)" gradientUnits="userSpaceOnUse"><stop offset="0" stop-color="#273a9b"/><stop offset="0.56" stop-color="#202f65"/><stop offset="1" stop-color="#021e2f"/></linearGradient><linearGradient id="Dégradé_sans_nom_11-2" x1="-158.17" y1="298.75" x2="-158.17" y2="403.03" xlink:href="#Dégradé_sans_nom_11"/><linearGradient id="Dégradé_sans_nom_13-2" x1="-178.42" y1="388.21" x2="-156.04" y2="365.83" xlink:href="#Dégradé_sans_nom_13"/><linearGradient id="Dégradé_sans_nom_11-3" x1="-145.42" y1="313.21" x2="-145.42" y2="379.76" xlink:href="#Dégradé_sans_nom_11"/><linearGradient id="Dégradé_sans_nom_11-4" x1="-140.92" y1="313.21" x2="-140.92" y2="379.76" xlink:href="#Dégradé_sans_nom_11"/><linearGradient id="Dégradé_sans_nom_11-5" x1="-154.42" y1="313.21" x2="-154.42" y2="379.76" xlink:href="#Dégradé_sans_nom_11"/><linearGradient id="Dégradé_sans_nom_11-6" x1="-143.17" y1="313.21" x2="-143.17" y2="379.76" xlink:href="#Dégradé_sans_nom_11"/><linearGradient id="Dégradé_sans_nom_11-7" x1="-145.42" y1="316.58" x2="-145.42" y2="300.58" xlink:href="#Dégradé_sans_nom_11"/><linearGradient id="Dégradé_sans_nom_11-8" x1="-140.92" y1="316.58" x2="-140.92" y2="300.58" xlink:href="#Dégradé_sans_nom_11"/><linearGradient id="Dégradé_sans_nom_11-9" x1="-143.17" y1="316.58" x2="-143.17" y2="300.58" xlink:href="#Dégradé_sans_nom_11"/><linearGradient id="Dégradé_sans_nom_13-3" x1="-141.67" y1="332.09" x2="-141.67" y2="379.75" xlink:href="#Dégradé_sans_nom_13"/><linearGradient id="Dégradé_sans_nom_13-4" x1="-150.23" y1="323.93" x2="-139.48" y2="373.06" xlink:href="#Dégradé_sans_nom_13"/><linearGradient id="Dégradé_sans_nom_22" x1="314.85" y1="232.31" x2="445.04" y2="102.12" gradientTransform="matrix(1, 0.11, 0.11, -1, -103.12, 472.51)" gradientUnits="userSpaceOnUse"><stop offset="0" stop-color="#ffa936"/><stop offset="0.41" stop-color="#ff8548"/><stop offset="0.78" stop-color="#ff6c54"/><stop offset="1" stop-color="#ff6359"/></linearGradient><linearGradient id="Dégradé_sans_nom_21" x1="379.68" y1="202.83" x2="370.05" y2="200.71" gradientTransform="matrix(1, 0, 0, -1, 0.26, 503.11)" gradientUnits="userSpaceOnUse"><stop offset="0" stop-color="#f82814" stop-opacity="0"/><stop offset="1" stop-color="#c0272d"/></linearGradient><linearGradient id="Dégradé_sans_nom_16" x1="82.97" y1="223.28" x2="213.16" y2="93.09" gradientTransform="matrix(0.99, -0.19, -0.19, -0.99, 180.23, 528.58)" gradientUnits="userSpaceOnUse"><stop offset="0" stop-color="#cdec7a"/><stop offset="0.22" stop-color="#b0e995"/><stop offset="0.56" stop-color="#87e4bb"/><stop offset="0.83" stop-color="#6ee1d2"/><stop offset="1" stop-color="#65e0db"/></linearGradient><linearGradient id="Dégradé_sans_nom_20" x1="380.16" y1="163.81" x2="363.73" y2="163.81" gradientTransform="matrix(1, 0, 0, -1, 0.26, 503.11)" gradientUnits="userSpaceOnUse"><stop offset="0" stop-color="#cdec7a" stop-opacity="0"/><stop offset="0.24" stop-color="#9ad57d" stop-opacity="0.23"/><stop offset="0.6" stop-color="#51b482" stop-opacity="0.6"/><stop offset="0.87" stop-color="#239f85" stop-opacity="0.87"/><stop offset="1" stop-color="#119786"/></linearGradient><linearGradient id="Dégradé_sans_nom_20-2" x1="254.13" y1="79.63" x2="254.13" y2="89.36" xlink:href="#Dégradé_sans_nom_20"/><linearGradient id="Dégradé_sans_nom_19" x1="218.73" y1="221.74" x2="348.92" y2="91.55" gradientTransform="matrix(1, 0, 0, -1, 0.26, 503.11)" gradientUnits="userSpaceOnUse"><stop offset="0" stop-color="#f8f6fb"/><stop offset="1" stop-color="#efdcfb"/></linearGradient><linearGradient id="Dégradé_sans_nom_18" x1="228.54" y1="225.98" x2="355.52" y2="60.78" gradientTransform="matrix(1, 0, 0, -1, 0.26, 503.11)" gradientUnits="userSpaceOnUse"><stop offset="0" stop-color="#18cefb"/><stop offset="0.3" stop-color="#2bb9f9"/><stop offset="0.73" stop-color="#42a0f7"/><stop offset="1" stop-color="#4a97f6"/></linearGradient><linearGradient id="Dégradé_sans_nom_17" x1="213.66" y1="139.8" x2="269.29" y2="67.43" gradientTransform="matrix(1, 0, 0, -1, 0.26, 503.11)" gradientUnits="userSpaceOnUse"><stop offset="0" stop-color="#cdec7a"/><stop offset="0.22" stop-color="#b0e995" stop-opacity="0.78"/><stop offset="0.56" stop-color="#87e4bb" stop-opacity="0.44"/><stop offset="0.83" stop-color="#6ee1d2" stop-opacity="0.17"/><stop offset="1" stop-color="#65e0db" stop-opacity="0"/></linearGradient><linearGradient id="Dégradé_sans_nom_16-2" x1="262.97" y1="151.03" x2="330.06" y2="63.74" gradientTransform="matrix(1, 0, 0, -1, 0.26, 503.11)" xlink:href="#Dégradé_sans_nom_16"/><linearGradient id="Dégradé_sans_nom_15" x1="230.33" y1="213.67" x2="252.08" y2="185.37" gradientTransform="matrix(1, 0, 0, -1, 0.26, 503.11)" gradientUnits="userSpaceOnUse"><stop offset="0" stop-color="#ffd945"/><stop offset="0.3" stop-color="#ffcd3e"/><stop offset="0.86" stop-color="#ffad2b"/><stop offset="1" stop-color="#ffa325"/></linearGradient></defs><g id="Calque_2" data-name="Calque 2"><g id="svg1811"><g id="layer1"><g id="g2465"><g id="g1773"><path id="path1701" class="cls-1" d="M348.29,416H532.67v102A55.72,55.72,0,0,1,477,573.64H348.29Z"/><path id="path1703" class="cls-2" d="M387.21,0H177a31.55,31.55,0,0,0-22.4,9.29L9.29,154.75A31.55,31.55,0,0,0,0,177.56V510.13a63.51,63.51,0,0,0,63.51,63.51h323.7a63.5,63.5,0,0,0,63.51-63.51h0V63.51A63.5,63.5,0,0,0,387.21,0Z"/><path id="path1705" class="cls-3" d="M204.88,0H177.56a31.53,31.53,0,0,0-22.4,9.29L88.78,75.12,9.29,154.75A31.55,31.55,0,0,0,0,177.56V510.13a63.51,63.51,0,0,0,63.51,63.51H163.9v-386a68.3,68.3,0,0,1,13.66-40.15,139.31,139.31,0,0,0,27.32-82.63Z"/><path id="path1707" class="cls-4" d="M77.17,163.9A86.73,86.73,0,0,0,163.9,77.17h0V3a31.9,31.9,0,0,0-9.29,6.29L9.29,154.75A31.49,31.49,0,0,0,3,164Z"/><path id="path1711" class="cls-5" d="M358.53,256.09H194.63a10.24,10.24,0,0,0-10.24,10.24h0a10.24,10.24,0,0,0,10.24,10.25h163.9a10.25,10.25,0,0,0,0-20.49Z"/><path id="path1713" class="cls-6" d="M358.53,338h-41a10.25,10.25,0,0,0-10.25,10.24h0a10.25,10.25,0,0,0,10.25,10.25h41a10.25,10.25,0,0,0,0-20.49Z"/><path id="path1717" class="cls-7" d="M225.36,430.23A10.23,10.23,0,0,0,215.12,420H92.2a10.25,10.25,0,1,0,0,20.49H215.12A10.24,10.24,0,0,0,225.36,430.23Z"/><path id="path1719" class="cls-8" d="M358.53,420H256.09a10.24,10.24,0,0,0-10.24,10.24h0a10.25,10.25,0,0,0,10.24,10.25H358.53a10.25,10.25,0,0,0,0-20.49Z"/><path id="path1723" class="cls-9" d="M358.53,245.85H194.63a10.23,10.23,0,0,0-10.24,10.24h0a10.23,10.23,0,0,0,10.24,10.24h163.9a10.24,10.24,0,1,0,0-20.48Z"/><path id="path1725" class="cls-10" d="M358.53,327.8h-41A10.24,10.24,0,0,0,307.31,338h0a10.24,10.24,0,0,0,10.25,10.24h41a10.24,10.24,0,0,0,0-20.48Z"/><path id="path1731" class="cls-11" d="M358.53,409.74H256.09A10.25,10.25,0,0,0,245.85,420h0a10.24,10.24,0,0,0,10.24,10.24H358.53a10.25,10.25,0,0,0,0-20.49Z"/><path id="path1733" class="cls-12" d="M477,204.87H164.58a41.66,41.66,0,0,0-41.65,41.66v183a41.66,41.66,0,0,0,41.65,41.66H477a58.18,58.18,0,0,1,55.72,41h0V260.6A55.73,55.73,0,0,0,477,204.87Z"/><path id="path1735" class="cls-13" d="M450.72,204.87H164.58a41.66,41.66,0,0,0-41.65,41.66v183a41.66,41.66,0,0,0,41.65,41.66H450.72Z"/></g></g></g><path class="cls-14" d="M355.89,424.62,200.48,407.4a13.61,13.61,0,0,1-12-15l14.28-128.88a13.61,13.61,0,0,1,15-12l155.41,17.22a13.62,13.62,0,0,1,12,15L370.92,412.59a13.61,13.61,0,0,1-15,12Z"/><path class="cls-15" d="M385.2,283.71l-5.63,50.83L367.05,268l6.12.68a13.61,13.61,0,0,1,12,15Z"/><path class="cls-16" d="M378.16,400.68,224.49,429.59a13.61,13.61,0,0,1-15.89-10.86l-24-127.44a13.61,13.61,0,0,1,10.86-15.89l153.67-28.91a13.61,13.61,0,0,1,15.89,10.86l24,127.44A13.61,13.61,0,0,1,378.16,400.68Z"/><path class="cls-17" d="M368.33,274.79V402.53l9.83-1.85A13.61,13.61,0,0,0,389,384.79Z"/><path class="cls-18" d="M207.87,414.84l.73,3.89a13.61,13.61,0,0,0,15.89,10.86l78.41-14.75Z"/><path class="cls-19" d="M354.72,415.64H198.35A13.62,13.62,0,0,1,184.74,402V272.35a13.61,13.61,0,0,1,13.61-13.61H354.72a13.61,13.61,0,0,1,13.61,13.61V402a13.61,13.61,0,0,1-13.61,13.62Z"/><path class="cls-20" d="M342,402.85H211.1a11.39,11.39,0,0,1-11.39-11.4V282.92a11.39,11.39,0,0,1,11.39-11.39H342a11.39,11.39,0,0,1,11.39,11.39V391.45A11.39,11.39,0,0,1,342,402.85Z"/><path class="cls-21" d="M285.65,402.85H211.1a11.39,11.39,0,0,1-11.39-11.4V373.66l18.91-23a15.61,15.61,0,0,1,24.11,0L254.5,365Z"/><path class="cls-22" d="M353.37,362.85v28.6a11.4,11.4,0,0,1-11.4,11.4H223.36L254.5,365l38.26-46.51a15.61,15.61,0,0,1,24.11,0Z"/><circle class="cls-23" cx="239.51" cy="299.04" r="16.16"/></g></g></svg>